<?xml version="1.0" standalone="no"?>
<!DOCTYPE svg PUBLIC "-//W3C//DTD SVG 20010904//EN"
 "http://www.w3.org/TR/2001/REC-SVG-20010904/DTD/svg10.dtd">
<svg version="1.0" xmlns="http://www.w3.org/2000/svg"
 width="3433.000000pt" height="4081.000000pt" viewBox="0 0 3433.000000 4081.000000"
 preserveAspectRatio="xMidYMid meet">

<g transform="translate(0.000000,4081.000000) scale(0.100000,-0.100000)"
fill="#000000" stroke="none">
<path d="M17700 39413 c-694 -71 -1537 -476 -2285 -1099 -167 -139 -519 -491
-665 -664 -115 -136 -271 -340 -369 -482 -29 -43 -55 -78 -56 -78 -2 0 -43 25
-91 56 -792 500 -1719 432 -2509 -183 -500 -390 -955 -1018 -1300 -1798 -196
-442 -403 -1058 -548 -1630 -192 -751 -323 -1592 -397 -2540 -22 -288 -50
-774 -50 -875 0 -63 -4 -73 -108 -280 -167 -331 -288 -661 -385 -1045 -127
-502 -195 -947 -276 -1807 -17 -172 -41 -383 -55 -468 -36 -216 -62 -430 -83
-670 -22 -258 -25 -1063 -5 -1320 70 -890 219 -1672 507 -2665 195 -672 408
-1150 673 -1515 188 -258 376 -459 801 -858 369 -346 499 -476 662 -665 815
-941 1292 -2173 1423 -3677 48 -550 50 -1269 6 -1900 -59 -822 -161 -1531
-486 -3375 -88 -501 -534 -2963 -656 -3625 -10 -57 -17 -114 -14 -126 16 -63
97 -108 153 -85 41 17 52 40 73 159 107 592 260 1449 305 1707 31 176 90 507
131 735 499 2759 605 3414 688 4240 55 544 61 666 61 1305 0 701 -13 931 -81
1410 -169 1196 -578 2247 -1194 3070 -187 249 -376 453 -740 798 -673 638
-820 801 -1042 1155 -288 457 -496 1014 -728 1944 -344 1381 -433 2619 -269
3762 16 114 34 227 39 250 6 22 21 163 35 311 105 1122 232 1792 459 2416 87
241 233 555 274 593 12 10 28 40 37 66 20 61 166 283 276 420 110 138 348 376
477 479 245 194 514 344 762 425 268 88 452 116 795 123 394 8 583 -11 1495
-153 1763 -273 3517 -574 5330 -914 173 -32 432 -80 575 -105 517 -92 811
-161 1043 -244 346 -124 556 -292 645 -519 25 -65 31 -95 35 -189 11 -264 -97
-504 -423 -938 -155 -206 -281 -352 -470 -540 -584 -584 -1279 -1014 -2066
-1275 -113 -38 -250 -78 -305 -89 -250 -50 -716 -110 -1022 -131 -194 -13
-641 -13 -792 0 -300 26 -708 115 -895 195 -60 25 -474 228 -920 450 -891 443
-837 411 -1085 634 -125 113 -137 121 -182 121 -57 0 -108 -51 -108 -109 0
-37 6 -46 68 -105 74 -71 206 -185 266 -231 21 -16 75 -74 120 -130 537 -665
1206 -1170 1729 -1304 246 -64 363 -75 767 -76 369 0 457 5 768 46 84 11 158
17 163 13 19 -12 159 -185 207 -257 280 -416 498 -945 577 -1397 90 -521 62
-1663 -66 -2640 -56 -429 -94 -624 -185 -949 -19 -68 -32 -126 -30 -129 3 -3
13 1 21 8 18 15 17 12 -6 -82 -18 -71 -14 -107 14 -136 33 -33 91 -36 116 -6
10 12 37 125 69 285 41 203 60 276 82 314 160 289 335 881 395 1335 89 684 -6
1961 -260 3477 -30 182 -55 337 -55 346 0 10 14 18 41 22 23 4 132 32 243 62
110 31 211 57 223 60 19 4 27 -5 57 -65 147 -293 481 -652 808 -871 177 -118
408 -220 581 -255 371 -77 933 -7 1689 210 105 30 192 53 193 52 1 -2 15 -46
30 -98 188 -643 484 -1113 782 -1241 118 -51 353 -89 545 -89 377 0 996 131
1263 266 251 127 905 638 1759 1373 131 113 255 219 274 236 l35 29 -7 -139
c-20 -429 -100 -1032 -197 -1504 -380 -1837 -1239 -3509 -2609 -5076 -239
-274 -489 -532 -889 -919 -576 -558 -800 -793 -1016 -1071 -458 -588 -701
-1240 -849 -2275 -267 -1870 -271 -3821 -10 -5730 220 -1612 633 -3214 1220
-4735 64 -165 81 -185 155 -185 42 0 55 5 80 29 16 17 29 40 29 54 0 14 -34
115 -76 224 -1187 3092 -1623 6460 -1258 9733 134 1210 307 1857 643 2413 200
330 443 611 984 1139 843 822 1111 1109 1538 1643 1296 1621 2078 3364 2369
5276 89 589 124 1099 118 1751 -3 393 -3 397 -25 427 -13 17 -23 33 -23 36 0
3 26 45 59 93 160 238 373 619 506 902 289 619 456 1220 522 1880 21 217 24
754 5 970 -52 579 -169 1107 -364 1639 -463 1267 -1298 2325 -2373 3008 -168
107 -376 225 -418 238 -37 11 -40 15 -106 161 -220 486 -512 984 -790 1348
-267 350 -578 658 -881 873 -304 217 -676 361 -1052 409 -178 22 -446 15 -603
-16 -357 -71 -671 -251 -895 -514 -36 -42 -70 -93 -76 -114 l-11 -37 -18 58
c-45 153 -162 442 -248 614 -343 682 -793 1051 -1377 1129 -94 12 -349 17
-440 7z m480 -232 c390 -78 696 -295 945 -671 349 -527 582 -1243 704 -2165
235 -1769 -57 -3704 -798 -5295 -76 -163 -209 -420 -235 -454 -10 -14 -22 -12
-106 15 -146 47 -349 105 -946 269 -1073 296 -1319 374 -1328 423 -3 12 -8 76
-11 142 -15 306 -79 888 -255 2325 -77 634 -110 836 -185 1148 -213 877 -638
1696 -1161 2235 l-96 98 28 40 c15 22 73 95 129 162 490 591 1074 1056 1746
1393 421 211 751 316 1104 354 118 13 355 3 465 -19z m3275 -1125 c380 -80
699 -231 1005 -476 136 -109 409 -382 536 -535 476 -575 908 -1381 1190 -2219
95 -280 111 -355 234 -1076 l121 -705 6 -300 c7 -358 -13 -812 -53 -1210 -67
-670 -224 -1146 -550 -1675 -248 -402 -552 -777 -1103 -1359 l-183 -194 5 -56
c3 -31 13 -103 23 -161 25 -146 25 -501 0 -695 -35 -277 -103 -596 -173 -805
-49 -150 -170 -388 -247 -491 -77 -101 -228 -249 -316 -307 -47 -32 -72 -42
-102 -42 -32 0 -47 -7 -73 -33 -48 -48 -190 -107 -495 -206 -119 -38 -478
-128 -605 -150 -96 -17 -375 -32 -720 -38 -308 -6 -323 -5 -400 16 -105 29
-223 87 -310 152 -93 70 -325 304 -401 405 -56 75 -169 249 -180 279 -3 8 54
32 178 75 317 108 591 211 658 248 392 211 894 704 1462 1432 221 285 521 710
606 862 167 293 125 667 -116 1038 -155 239 -410 477 -579 540 -203 76 -480
108 -1009 117 l-362 6 44 131 c148 438 340 1117 484 1709 226 931 360 1708
417 2411 21 262 24 911 5 1126 -54 614 -139 1004 -342 1559 l-70 193 37 44
c44 54 153 150 231 203 140 94 324 167 512 201 156 29 466 22 635 -14z m-8145
-796 c272 -33 581 -149 829 -311 59 -39 80 -58 87 -82 11 -38 65 -77 107 -77
26 0 53 -23 182 -152 455 -459 777 -1087 1060 -2068 211 -729 336 -1450 386
-2225 11 -163 17 -961 8 -969 -2 -1 -683 41 -1514 95 -1105 72 -1558 105
-1690 123 -99 14 -219 28 -267 32 -58 4 -89 11 -92 20 -23 60 -70 303 -92 479
-20 157 -23 514 -5 660 45 376 132 682 293 1029 48 102 50 110 39 147 -20 66
-93 104 -148 77 -15 -7 -39 -34 -53 -60 -14 -25 -48 -70 -76 -99 -272 -289
-478 -767 -549 -1279 -10 -69 -19 -225 -22 -387 l-6 -271 -166 -68 c-364 -147
-848 -378 -1121 -535 -366 -209 -632 -412 -773 -588 l-59 -75 6 65 c3 35 13
154 21 264 83 1071 246 2011 510 2925 300 1040 716 1874 1226 2454 422 481
943 797 1429 865 41 6 86 13 100 15 56 8 271 5 350 -4z m11090 -2125 c1223
-740 2141 -1984 2540 -3445 198 -726 257 -1487 169 -2185 -85 -671 -306 -1348
-650 -1989 -416 -775 -999 -1509 -1963 -2471 -390 -390 -606 -556 -908 -699
-527 -251 -1047 -190 -1325 157 -138 172 -225 399 -268 697 -18 130 -19 189
-2 194 137 42 517 180 593 217 454 217 706 707 765 1489 20 263 1 729 -41 984
-5 34 -10 68 -10 77 0 8 33 42 73 74 93 77 255 232 384 368 541 570 941 1277
1128 1991 134 511 193 1078 182 1751 -7 456 -42 827 -112 1212 -114 617 -320
1142 -557 1416 -35 40 -60 83 -79 135 -30 80 -34 96 -21 89 4 -3 50 -31 102
-62z"/>
</g>
</svg>
