<?xml version="1.0" standalone="no"?>
<!DOCTYPE svg PUBLIC "-//W3C//DTD SVG 20010904//EN"
 "http://www.w3.org/TR/2001/REC-SVG-20010904/DTD/svg10.dtd">
<svg version="1.0" xmlns="http://www.w3.org/2000/svg"
 width="1275.000000pt" height="1500.000000pt" viewBox="0 0 1275.000000 1500.000000"
 preserveAspectRatio="xMidYMid meet">

<g transform="translate(0.000000,1500.000000) scale(0.100000,-0.100000)"
fill="#000000" stroke="none">
<path d="M6070 13434 c-114 -9 -389 -46 -500 -69 -702 -143 -1304 -433 -1855
-894 -114 -96 -379 -360 -471 -471 -118 -141 -255 -328 -338 -458 -651 -1031
-811 -2297 -435 -3460 155 -480 415 -950 748 -1352 89 -107 344 -371 436 -450
591 -513 1276 -839 2025 -964 269 -45 350 -51 695 -51 354 1 517 15 785 70
904 184 1711 655 2304 1345 75 87 191 234 226 287 8 12 38 54 66 95 248 357
463 836 574 1277 175 697 163 1470 -36 2151 -161 553 -437 1068 -808 1503
-118 139 -363 384 -481 483 -270 224 -509 381 -814 534 -428 215 -852 342
-1356 406 -116 15 -639 27 -765 18z m516 -3169 c292 -74 540 -286 649 -554 75
-184 91 -408 42 -592 -45 -172 -118 -301 -241 -427 -140 -145 -313 -237 -512
-272 -101 -18 -308 -8 -408 19 -260 72 -472 246 -596 489 -228 449 -53 1008
393 1250 143 78 270 110 448 111 104 1 144 -3 225 -24z"/>
<path d="M9170 4469 c-80 -126 -146 -234 -148 -239 -2 -6 41 -10 106 -10 l111
0 53 58 c30 31 129 136 221 233 92 97 167 179 167 183 0 3 -82 6 -182 6 l-183
-1 -145 -230z"/>
<path d="M4235 4223 c-583 -75 -1037 -499 -1161 -1083 -24 -116 -25 -370 -1
-496 41 -223 135 -427 275 -597 215 -263 482 -422 822 -488 110 -22 376 -17
500 10 267 57 484 176 681 372 134 134 240 296 302 464 66 178 92 340 84 535
-10 260 -79 476 -222 696 -72 110 -249 288 -360 363 -166 111 -359 186 -555
216 -86 14 -290 18 -365 8z m291 -1057 c236 -108 238 -444 4 -559 -63 -31
-178 -35 -242 -10 -118 46 -188 145 -196 274 -4 68 -1 84 22 135 76 167 250
234 412 160z"/>
<path d="M10582 4128 c-235 -26 -411 -187 -479 -438 -25 -92 -25 -368 0 -460
38 -140 105 -234 220 -309 35 -22 141 -73 236 -111 285 -115 310 -135 332
-264 16 -94 7 -326 -15 -386 -35 -94 -117 -137 -245 -128 -150 11 -221 100
-221 277 l0 76 -172 -2 -173 -2 0 -118 c1 -95 5 -131 23 -184 62 -182 182
-302 367 -365 70 -24 95 -28 200 -28 191 0 314 43 416 146 99 101 148 224 170
427 13 122 5 308 -17 421 -16 79 -67 185 -112 233 -53 56 -144 106 -334 181
-215 86 -264 112 -302 156 -36 43 -48 97 -48 215 0 127 19 201 69 255 64 72
187 88 278 37 84 -47 125 -137 125 -272 l0 -65 175 0 175 0 0 103 c0 131 -19
219 -67 310 -66 125 -195 232 -337 277 -54 17 -188 26 -264 18z"/>
<path d="M6527 4114 c-4 -4 -7 -549 -7 -1211 l0 -1203 175 0 175 0 2 732 3
732 98 -299 c54 -165 131 -398 170 -517 l72 -218 86 0 87 0 168 510 c92 280
170 507 172 505 3 -2 4 -321 3 -707 -1 -387 1 -711 4 -721 6 -15 25 -17 176
-17 l169 0 0 1210 0 1210 -157 0 c-87 0 -163 -4 -170 -8 -6 -4 -97 -257 -203
-562 -254 -735 -247 -717 -254 -700 -3 8 -22 62 -42 120 -55 159 -193 558
-279 805 -42 121 -83 240 -92 265 -29 84 -15 78 -191 79 -87 1 -161 -2 -165
-5z"/>
<path d="M8951 4083 c-5 -21 -37 -159 -70 -308 -33 -148 -107 -481 -165 -740
-234 -1048 -296 -1326 -296 -1330 0 -3 78 -5 173 -5 l174 0 48 248 c26 136 50
253 53 260 3 9 60 12 236 12 l232 0 49 -247 c26 -137 50 -254 53 -260 3 -10
47 -13 173 -13 140 0 169 2 169 14 0 8 -34 167 -76 353 -41 186 -145 650 -230
1030 -225 1010 -224 1004 -229 1013 -3 4 -68 9 -144 9 l-140 2 -10 -38z m264
-1248 c26 -132 49 -250 52 -262 l5 -23 -172 0 -172 0 5 23 c5 20 125 634 148
757 6 30 13 62 16 70 5 15 27 -89 118 -565z"/>
<path d="M1492 2908 l3 -1203 172 -3 173 -2 2 722 3 723 42 -115 c145 -402
354 -974 415 -1138 l71 -192 161 2 161 3 3 1203 2 1202 -175 0 -175 0 -2 -722
-3 -723 -22 60 c-162 451 -313 872 -345 960 -22 61 -65 181 -96 268 l-56 157
-168 0 -168 0 2 -1202z"/>
</g>
</svg>
